<?xml version="1.0" encoding="UTF-8"?>
<svg id="Layer_2" data-name="Layer 2" xmlns="http://www.w3.org/2000/svg" viewBox="0 0 646.51 130.46">
  <defs>
    <style>
      .cls-1 {
        fill: #ef1718;
      }

      .cls-2 {
        fill: #fff;
      }
    </style>
  </defs>
  <g id="Layer_1-2" data-name="Layer 1">
    <g>
      <path class="cls-1" d="m15.46,130.46c-8.33,0-14.14-5.86-14.14-14.25v-7.89c0-7.69,4.63-13.29,11.51-14.3v-47.27c-6.45-.48-9.64-3.61-11.2-6.26-1.34-2.28-3.06-7.02.4-13.22L12.61,8.56C15.5,3.75,20.5.99,26.31.99h9.43c8.26,0,14.03,5.73,14.03,13.92v79.55c6.24,1.75,10.31,7.1,10.31,14.19v7.24c0,8.58-6.04,14.58-14.69,14.58H15.46Z"/>
      <path class="cls-1" d="m94.07,130.46c-7.07,0-13.49-1.18-19.08-3.51-6.17-2.57-11.35-6.87-15.4-12.77-3.75-5.46-6.44-12.27-8.23-20.82-1.63-7.79-2.46-17.52-2.46-28.9s.81-20.58,2.48-28.22c1.79-8.2,4.61-14.98,8.38-20.14,4.11-5.64,9.35-9.68,15.57-12.01,5.49-2.06,11.83-3.1,18.85-3.1s13.7,1.18,19.32,3.49c6.2,2.56,11.38,6.79,15.4,12.57,3.67,5.28,6.41,12.07,8.14,20.17,1.6,7.49,2.41,16.65,2.41,27.25,0,11.51-.83,21.33-2.46,29.17-1.79,8.6-4.49,15.43-8.25,20.86-4.09,5.9-9.33,10.15-15.59,12.64-5.58,2.21-12,3.33-19.08,3.33Zm-.33-92.97c-1.49,0-2.72.24-3.66.7-.46.23-1.04.93-1.58,1.92-.7,1.27-1.7,3.75-2.46,8.34-.71,4.25-1.07,9.79-1.07,16.45,0,7,.35,12.88,1.04,17.49.75,5.03,1.8,7.84,2.54,9.31.92,1.82,1.65,2.33,1.86,2.44.7.39,1.6.59,2.73.59h.49c1.44,0,2.56-.24,3.44-.73.28-.16,1.03-.71,1.95-2.49.77-1.49,1.86-4.31,2.69-9.33.75-4.52,1.13-10.33,1.13-17.28s-.36-12.9-1.07-17.24c-.8-4.87-1.85-7.24-2.4-8.22-.52-.91-.93-1.27-1.07-1.33-1.02-.42-2.34-.63-3.91-.63h-.64Z"/>
      <path class="cls-1" d="m146.25,130.46c-8.52,0-14.47-5.86-14.47-14.25v-24.23c0-2.61.58-4.97,1.63-6.98-.98-1.91-1.56-4.12-1.62-6.57v-7.95c0-2.44.53-4.69,1.5-6.62-.97-1.99-1.5-4.32-1.5-6.87V14.91c0-8.2,5.86-13.92,14.25-13.92h8.77c7.38,0,12.83,4.33,14.16,10.85h27.6c1.32-6.53,6.73-10.85,14.05-10.85h8.88c8.39,0,14.25,5.73,14.25,13.92v41.66c0,2.64-.58,5.04-1.63,7.1,1.05,1.98,1.63,4.29,1.63,6.82v7.34c0,8.39-5.95,14.25-14.47,14.25h-17c-.02,1.03-.14,2.02-.34,2.97h17.89c8.2,0,13.92,5.77,13.92,14.03v6.91c0,8.52-5.72,14.47-13.92,14.47h-73.57Z"/>
      <path class="cls-1" d="m243.61,130.46c-10.81-.21-15.57-7.15-15.57-13.92v-25.11c0-2.41.45-4.61,1.27-6.54-1.9-2.41-2.81-5.38-2.81-8.26V17.21c0-6.71,4.66-13.92,14.91-13.92h40.78c2.84,0,5.27.52,7.3,1.4,2.5-2.28,5.96-3.59,10.02-3.59h8.99c8.45,0,14.36,5.63,14.36,13.7v13.25c5.72,1.73,9.43,6.8,9.43,13.5v8.88c0,6.71-3.71,11.77-9.43,13.44v11.67c0,8.33-5.95,14.14-14.47,14.14h-8.77c-5.33,0-9.65-2.28-12.12-6.02l-.25.07c-7.14,1.97-14.57,3.48-22.26,4.53.13.89.2,1.84.2,2.85v3.51h46.93c8.65,0,14.69,5.95,14.69,14.47v6.25c0,8.91-6.04,15.13-14.69,15.13h-68.52Z"/>
      <path class="cls-1" d="m368.26,130.46c-8.84,0-15.02-5.99-15.02-14.58v-17.76c0-2.41.46-4.62,1.3-6.55-.84-1.79-1.3-3.83-1.3-6.06v-4.61c0-2.61.56-4.97,1.57-6.99-.74-1.81-1.14-3.85-1.14-6.06.06-10.69,1.51-21.5,4.33-32.29-3.49-2.34-5.65-6.32-5.65-11.13v-7.89c0-7.75,5.62-13.37,13.37-13.37h48.35c1.55,0,3.03.21,4.39.62,2.38-1.72,5.46-2.7,8.99-2.7h9.1c8.39,0,14.25,5.63,14.25,13.7v7.82c5.65,1.67,9.32,6.78,9.32,13.56v8.88c0,6.66-3.67,11.71-9.32,13.41v9.94c0,1.21-.12,2.36-.36,3.45,2.03,2.52,3,5.67,3,8.72v19.84c0,1.89-.36,3.66-1.01,5.24.66,1.6,1.01,3.37,1.01,5.29v5.92c0,7.88-5.76,13.59-13.7,13.59h-71.48Z"/>
      <path class="cls-1" d="m534.25,130.35c-2.43,0-4.65-.51-6.58-1.45-1.93.94-4.15,1.45-6.58,1.45h-7.67c-8.39,0-14.25-6.09-14.25-14.8v-10.46c-3.2,7.53-6.91,13.38-11.15,17.62-3.77,3.76-9.09,5.66-15.82,5.66h-6.14c-6.25,0-11.25-3.11-13.39-8.32-1.05-2.54-2.66-9.13,4.56-15.92,11.15-12.38,17.03-34.26,17.49-65.11h-11.18c-8.39,0-14.25-5.77-14.25-14.03v-7.68c0-8.26,5.86-14.03,14.25-14.03h34.97c2.12,0,3.92.37,5.45.95,2.44-2,5.7-3.14,9.47-3.14h7.67c2.43,0,4.65.48,6.58,1.35,1.93-.88,4.15-1.35,6.58-1.35h7.67c8.33,0,14.14,5.68,14.14,13.81v100.65c0,8.71-5.82,14.8-14.14,14.8h-7.67Z"/>
      <path class="cls-1" d="m563.85,127.94c-8.78,0-14.91-5.9-14.91-14.36v-7.13c0-8.6,5.97-14.66,14.59-14.9-.58-.48-1.15-.98-1.69-1.51-3.26-3.16-5.93-7.07-7.91-11.63-1.8-4.13-3.11-8.83-3.89-13.98-.73-4.78-1.1-9.9-1.1-15.21,0-7.38.73-14,2.17-19.67,1.64-6.47,4.53-12.02,8.59-16.48,4.12-4.53,9.58-7.93,16.22-10.11,6.07-1.99,13.21-2.97,21.81-2.97s15.37,1,21.3,2.98c6.49,2.16,11.91,5.51,16.1,9.96,4.18,4.44,7.21,9.96,8.99,16.41,1.58,5.74,2.39,12.43,2.39,19.87,0,5.41-.4,10.55-1.17,15.27-.84,5.05-2.2,9.68-4.05,13.75-2.02,4.44-4.72,8.28-8,11.42-.69.66-1.42,1.29-2.17,1.89h.93c8.52,0,14.47,5.95,14.47,14.47v7.89c0,8.26-5.86,14.03-14.25,14.03h-68.41Zm33.99-92.97c-4.61,0-7.88.88-9.2,2.47-1.77,2.14-2.75,6.32-2.75,11.78,0,3.64.29,6.79.86,9.35.41,1.85,1.01,3.3,1.8,4.32.36.47,1.01,1.16,2.44,1.73,1.09.43,3.15.95,6.75.95,3.19,0,7.34-.46,8.99-2.63,1.91-2.52,2.96-7.39,2.96-13.71,0-5.55-.95-9.77-2.68-11.88-1.23-1.51-4.57-2.37-9.16-2.37Z"/>
    </g>
    <g>
      <path class="cls-2" d="m34.45,9.57v88.91h5.37c3.29,0,4.93,1.61,4.93,4.82v7.24c0,3.07-1.57,4.6-4.71,4.6H10.12c-2.78,0-4.17-1.42-4.17-4.28v-7.89c0-3,1.28-4.49,3.84-4.49h7.67V31.49h-8.22c-4.31,0-5.59-1.57-3.84-4.71L15.82,8.36c1.1-1.83,2.81-2.74,5.15-2.74h9.43c2.7,0,4.06,1.31,4.06,3.95Z"/>
      <path class="cls-2" d="m88.84,5.62c5.92,0,11.09.92,15.51,2.74,4.42,1.83,8.09,4.84,11.02,9.05,2.92,4.2,5.12,9.72,6.58,16.56s2.19,15.22,2.19,25.16c0,10.89-.75,19.94-2.25,27.14-1.5,7.2-3.73,12.94-6.69,17.21-2.96,4.27-6.65,7.29-11.07,9.05-4.42,1.75-9.56,2.63-15.4,2.63s-10.85-.91-15.24-2.74-8.06-4.9-11.02-9.21-5.19-10.05-6.69-17.21c-1.5-7.16-2.25-16.11-2.25-26.86s.75-19.22,2.25-26.09c1.5-6.87,3.73-12.33,6.69-16.39s6.63-6.91,11.02-8.55,9.5-2.47,15.35-2.47Zm-.55,93.74c3.14,0,5.9-.66,8.28-1.97,2.37-1.31,4.37-3.52,5.97-6.63,1.61-3.11,2.83-7.2,3.67-12.28.84-5.08,1.26-11.38,1.26-18.91s-.4-13.96-1.21-18.86c-.8-4.9-1.99-8.73-3.56-11.51-1.57-2.78-3.56-4.66-5.97-5.65-2.41-.99-5.19-1.44-8.33-1.37-3.07,0-5.78.59-8.11,1.75-2.34,1.17-4.29,3.18-5.87,6.03-1.57,2.85-2.76,6.69-3.56,11.51-.81,4.82-1.21,10.85-1.21,18.09s.38,13.85,1.15,18.97c.77,5.12,1.94,9.23,3.51,12.33,1.57,3.11,3.53,5.32,5.87,6.63,2.34,1.31,5.04,1.94,8.11,1.86Z"/>
      <path class="cls-2" d="m140.58,56.05c-2.78,0-4.17-1.46-4.17-4.39V9.57c0-2.63,1.43-3.95,4.28-3.95h8.77c3,0,4.5,1.35,4.5,4.06v6.8h46.92v-6.8c0-2.7,1.46-4.06,4.39-4.06h8.88c2.85,0,4.28,1.31,4.28,3.95v41.66c0,3.22-1.75,4.83-5.26,4.83h-72.58Zm-.33,20.72c-2.48,0-3.76-1.31-3.84-3.95v-7.67c0-2.56,1.21-3.84,3.62-3.84h74.55c2.56,0,3.84,1.28,3.84,3.84v7.34c0,2.85-1.5,4.28-4.5,4.28h-26.97v9.65c0,2.41-1.13,3.62-3.4,3.62h-11.95c-2.19,0-3.29-1.13-3.29-3.4v-9.87h-28.07Zm74.22,22.91c2.63,0,3.95,1.35,3.95,4.06v6.91c0,3-1.32,4.49-3.95,4.49h-73.57c-3,0-4.5-1.42-4.5-4.28v-24.23c0-2.63,1.28-3.95,3.84-3.95h9.65c2.63,0,3.95,1.28,3.95,3.84v13.16h60.63Zm-13.6-59.2v-8.44h-47.03v8.44h47.03Z"/>
      <path class="cls-2" d="m282.34,65.04c0,1.68-1.02,2.92-3.07,3.73-13.52,3.73-28.03,5.7-43.53,5.92-3.07,0-4.6-1.13-4.6-3.4V11.87c0-2.63,1.64-3.95,4.93-3.95h40.78c3.65,0,5.48,1.31,5.48,3.95v53.17Zm24.45,34.21c3.14,0,4.71,1.5,4.71,4.49v6.25c0,3.43-1.57,5.15-4.71,5.15h-68.52c-3.73-.07-5.59-1.39-5.59-3.95v-25.11c0-3.14,1.35-4.71,4.06-4.71h10.09c2.05,0,3.07,1.46,3.07,4.39v13.48h56.9Zm-58.98-39.03c6.07-.07,11.8-.95,17.21-2.63V23.16h-17.21v37.06Zm65.23-28.18c2.63,0,3.95,1.39,3.95,4.17v8.88c0,2.7-1.24,4.06-3.73,4.06h-5.7v21.05c0,2.78-1.5,4.17-4.5,4.17h-8.77c-2.92,0-4.39-1.31-4.39-3.95V9.46c0-2.48,1.43-3.73,4.28-3.73h8.99c2.92,0,4.39,1.24,4.39,3.73v22.58h5.48Z"/>
      <path class="cls-2" d="m382.44,22.5c-.73,1.61-1.39,3.29-1.97,5.04,20.68-1.54,30.88,10.09,30.59,34.86,0,3.14-1.68,4.75-5.04,4.82h-7.89c-2.78-.07-4.17-1.5-4.17-4.28-.22-16.01-5.99-22.48-17.32-19.41-.88,5.92-1.35,12.39-1.43,19.41,0,2.78-1.61,4.17-4.82,4.17h-7.46c-3.07,0-4.6-1.54-4.6-4.61.07-13.23,2.45-26.57,7.13-40.02h-5.04c-2.27,0-3.4-1.13-3.4-3.4v-7.89c0-2.26,1.13-3.4,3.4-3.4h48.35c2.56,0,3.84,1.17,3.84,3.51v7.24c0,2.63-1.32,3.95-3.95,3.95h-26.2Zm-7.13,75.76v4.17h59.09c2.48-.07,3.73.99,3.73,3.18v5.92c0,2.41-1.24,3.62-3.73,3.62h-71.48c-3.36,0-5.04-1.54-5.04-4.6v-17.76c0-3.14,1.46-4.71,4.39-4.71h58.44v-4.17h-58.22c-3.07,0-4.6-1.24-4.6-3.73v-4.61c0-2.78,1.28-4.17,3.84-4.17h71.59c3.22,0,4.82,1.28,4.82,3.84v19.84c0,2.12-1.24,3.18-3.73,3.18h-59.09Zm66-71.59c2.34,0,3.51,1.39,3.51,4.17v8.88c0,2.71-1.24,4.06-3.73,4.06h-5.59v19.29c0,2.78-1.5,4.17-4.49,4.17h-8.77c-2.92,0-4.39-1.31-4.39-3.95V9.24c0-2.34,1.43-3.51,4.28-3.51h9.1c2.85,0,4.28,1.24,4.28,3.73v17.21h5.81Z"/>
      <path class="cls-2" d="m479.35,26.23c0-1.68-1.02-2.52-3.07-2.52h-18.09c-2.85,0-4.28-1.35-4.28-4.06v-7.68c0-2.7,1.43-4.06,4.28-4.06h34.97c3.14,0,4.68,1.94,4.61,5.81,0,8.33-.26,15.68-.77,22.04h6.8V9.57c0-2.56,1.43-3.84,4.28-3.84h7.67c2.85,0,4.28,1.28,4.28,3.84v100.65c0,3.21-1.43,4.82-4.28,4.82h-7.67c-2.85,0-4.28-1.61-4.28-4.82v-57.34h-8.77c-4.02,29.38-10.49,48.53-19.41,57.45-1.83,1.83-4.75,2.74-8.77,2.74h-6.14c-2.19,0-3.58-.71-4.17-2.14-.59-1.43.22-3.12,2.41-5.1,14.03-15.28,20.83-41.81,20.39-79.6Zm45.28-16.66c0-2.56,1.43-3.84,4.28-3.84h7.67c2.78,0,4.17,1.28,4.17,3.84v100.65c0,3.21-1.39,4.82-4.17,4.82h-7.67c-2.85,0-4.28-1.61-4.28-4.82V9.57Z"/>
      <path class="cls-2" d="m572.1,96.18v-14.14c-3.44-.73-6.32-2.23-8.66-4.49-2.34-2.26-4.24-5.08-5.7-8.44-1.46-3.36-2.52-7.2-3.18-11.51-.66-4.31-.99-8.88-.99-13.71,0-6.58.62-12.32,1.86-17.21,1.24-4.9,3.34-8.97,6.3-12.22,2.96-3.25,6.94-5.7,11.95-7.34,5.01-1.64,11.24-2.47,18.69-2.47s13.21.82,18.14,2.47,8.94,4.09,12.01,7.34c3.07,3.25,5.28,7.33,6.63,12.22,1.35,4.9,2.03,10.63,2.03,17.21,0,4.9-.35,9.45-1.04,13.65-.7,4.2-1.79,7.95-3.29,11.24-1.5,3.29-3.44,6.07-5.81,8.33-2.38,2.27-5.25,3.95-8.61,5.04v14.03h14.25c3,0,4.49,1.5,4.49,4.5v7.89c0,2.7-1.43,4.06-4.28,4.06h-68.41c-3.29,0-4.93-1.46-4.93-4.39v-7.13c0-3.29,1.72-4.93,5.15-4.93h13.37Zm20.28-25.98c7.97,0,13.61-2.19,16.94-6.58,3.32-4.39,4.99-10.96,4.99-19.73,0-8.11-1.64-14.18-4.93-18.2-3.29-4.02-8.92-6.03-16.88-6.03s-13.52,2.03-16.88,6.08c-3.36,4.06-5.04,10.1-5.04,18.14,0,4.39.36,8.22,1.1,11.51.73,3.29,1.94,6.03,3.62,8.22,1.68,2.19,3.91,3.84,6.69,4.93,2.78,1.1,6.25,1.64,10.42,1.64Zm0,14.91c-.81,0-1.57-.02-2.3-.05-.73-.04-1.46-.09-2.19-.16v11.29h8.66v-11.29c-.66.07-1.33.13-2.03.16-.7.04-1.41.05-2.14.05Z"/>
    </g>
  </g>
</svg>